<svg id="Capa_1" data-name="Capa 1" xmlns="http://www.w3.org/2000/svg" viewBox="0 0 729.92 632.68"><defs><style>.cls-1,.cls-2{fill:#fff;}.cls-2{opacity:0;}</style></defs><title>camara_sola</title><path class="cls-1" d="M959.72,856.74h-265c-57.34,0-99.63-42.25-99.65-99.63q0-168.32,0-336.64c0-56.65,41.83-98.7,98.64-99.14q38.73-.3,77.46.09c5,.06,7.18-1.57,8.79-6.15,5.22-14.76,10.75-29.41,16.39-44,10.81-27.95,38.44-47.06,68.43-47.11q95.19-.15,190.4,0a74.27,74.27,0,0,1,68.46,47.05c5.57,14.37,11,28.8,16.14,43.34,1.76,5,4.09,7,9.72,6.91,26.78-.33,53.58-.4,80.36,0a96.57,96.57,0,0,1,92.64,75.3,105.73,105.73,0,0,1,2.33,22.95q.23,169.41.06,338.81c-.07,56-42.77,98.25-98.78,98.26Q1092.92,856.77,959.72,856.74Zm170.75-267.81a170.39,170.39,0,1,0-170.7,170.5A170,170,0,0,0,1130.47,588.93Z" transform="translate(-595.08 -224.06)"/><path class="cls-2" d="M1130.47,588.93A170.39,170.39,0,1,1,960.33,418.67,170.24,170.24,0,0,1,1130.47,588.93Zm-280-.18A109.39,109.39,0,0,0,959.61,698.6c60.51.45,110.06-49,110-109.69,0-60.22-48.69-109.16-108.78-109.42A109.22,109.22,0,0,0,850.52,588.75Z" transform="translate(-595.08 -224.06)"/><path class="cls-1" d="M850.52,588.75A109.22,109.22,0,0,1,960.85,479.49c60.09.26,108.75,49.2,108.78,109.42,0,60.74-49.51,110.14-110,109.69A109.39,109.39,0,0,1,850.52,588.75Z" transform="translate(-595.08 -224.06)"/></svg>