<svg id="Capa_1" data-name="Capa 1" xmlns="http://www.w3.org/2000/svg" viewBox="0 0 1373.16 1375.74"><defs><style>.cls-1{fill:#fff;opacity:0;}</style></defs><title>camara_negra</title><path d="M734.2,26.6c0-47.1-.23-94.22,0-141.32.35-58,38-95.85,95.75-96q131.36-.37,262.71,0c58,.12,96.23,38.84,96.31,97.44q.18,138,.06,276c0,7.2-.21,14.45.43,21.6,2.13,23.94,7,29.22,30.77,28.38,31.57-1.12,58.72,7.14,81.5,30,4.58,4.61,14,6.18,21.14,6.22,74.27.39,148.54.62,222.8,0,63.89-.52,102.22,36.34,102.24,99.87q0,128.87,0,257.74c0,60.75-38.09,98.32-98.73,98.14-73.16-.23-146.32-.38-219.48.12-7.48.05-17.51,2.58-22,7.75-23.64,27.34-52.91,38.39-88.53,37-27.77-1.07-30,1.8-30.08,29.87q-.24,142.17-.11,284.33c0,64.09-37,101-101.18,101q-127.2.06-254.4,0c-62.7-.06-99.57-37.92-99.37-100.81.31-93.11.09-186.23,0-279.34,0-4.43-.34-8.85-.55-13.28-.73-15.83-7-24-24.84-22.29-37.11,3.53-68.53-8-92.79-37.75-3.63-4.47-12.66-6.3-19.22-6.35-74.81-.52-149.63-.37-224.45-.59-59.73-.17-96.91-36.51-97.19-95.94q-.6-132.18.05-264.37c.28-57.19,38.13-94.56,95.16-94.72,77.58-.23,155.17,0,232.75-.49,7.07,0,16-2.37,20.84-7,22.18-21.36,48-30.34,78.55-29.1,23.52,1,29.28-3.68,30.82-28.21,1.79-28.71.78-57.6.88-86.41C734.26,74.27,734.19,50.44,734.2,26.6ZM1169.41,751H752.7c0,44.31-.09,86.91,0,129.51.17,65.36-.6,130.76,1.12,196.08,1,39.67,30.21,68.44,69.25,68.85q138.78,1.47,277.6-.08c38.39-.46,68.18-30.44,68.44-67.91C1169.89,969,1169.41,860.57,1169.41,751ZM752.74,211.41c25.26,4,25.28,4,34.25-19.23,3.58-9.28,6.91-18.66,10.6-27.9,12.56-31.4,39.27-49.7,73.15-49.8,50.4-.15,100.84,1.31,151.18-.39,70-2.35,94.35,10.42,116.91,80.64,6.68,20.79,10.27,21.71,33.86,15.51-1-16.36-2.79-32.78-2.84-49.21-.29-92.48.07-185-.25-277.45-.15-45.5-29.51-74.7-75.07-74.84q-132.91-.41-265.82,0c-45.66.14-75.49,28.73-75.76,74.41C752.3-7.86,752.74,101.11,752.74,211.41ZM598.86,684.65c-1-19.18-2.51-35.64-2.69-52.12-.38-36-.88-72.06.06-108,2.19-84.39-5.32-169,4.89-256H580.88q-103.92,0-207.83,0c-50.25.06-79.32,29.06-79.45,79.76q-.33,128.86,0,257.72c.11,50.49,28.87,79.53,79.4,79.79,70.38.36,140.76.12,211.15.06C589,685.74,593.8,685,598.86,684.65Zm728.16-.44c1.73.32,4.9,1.43,8.08,1.43,74.76,0,149.53.8,224.27-.45,41-.69,69-30.55,69.22-72.06q.83-136.21.08-272.44c-.19-42.23-30.61-72-72.81-72.12-72.54-.26-145.08-.15-217.63-.1a103.35,103.35,0,0,0-11.6.9C1329.84,408.87,1328.79,546.07,1327,684.21ZM965.24,310.06c-94-1.94-172.22,73.9-173.85,168.48-1.62,93.73,74.48,172,168.9,173.75,91.76,1.69,170.92-74.35,173.12-166.29A171.59,171.59,0,0,0,965.24,310.06Z" transform="translate(-274.84 210.91)"/><path class="cls-1" d="M1169.41,751c0,109.57.48,218-.27,326.45-.26,37.47-30.05,67.45-68.44,67.91q-138.8,1.67-277.6.08c-39-.41-68.2-29.18-69.25-68.85-1.72-65.32-1-130.72-1.12-196.08-.12-42.6,0-85.2,0-129.51Z" transform="translate(-274.84 210.91)"/><path class="cls-1" d="M752.74,211.41c0-110.3-.44-219.27.21-328.24.27-45.68,30.1-74.27,75.76-74.41q132.9-.44,265.82,0c45.56.14,74.92,29.34,75.07,74.84.32,92.48,0,185,.25,277.45.05,16.43,1.85,32.85,2.84,49.21-23.59,6.2-27.18,5.28-33.86-15.51-22.56-70.22-46.9-83-116.91-80.64-50.34,1.7-100.78.24-151.18.39-33.88.1-60.59,18.4-73.15,49.8-3.69,9.24-7,18.62-10.6,27.9C778,215.43,778,215.42,752.74,211.41Z" transform="translate(-274.84 210.91)"/><path class="cls-1" d="M598.86,684.65c-5.06.39-9.9,1.09-14.73,1.09-70.39.06-140.77.3-211.15-.06-50.53-.26-79.29-29.3-79.4-79.79q-.29-128.86,0-257.72c.13-50.7,29.2-79.7,79.45-79.76q103.92-.11,207.83,0h20.24c-10.21,87-2.7,171.65-4.89,256-.94,36-.44,72-.06,108C596.35,649,597.82,665.47,598.86,684.65Z" transform="translate(-274.84 210.91)"/><path class="cls-1" d="M1327,684.21c1.77-138.14,2.82-275.34-.39-414.84a103.35,103.35,0,0,1,11.6-.9c72.55-.05,145.09-.16,217.63.1,42.2.15,72.62,29.89,72.81,72.12q.63,136.21-.08,272.44c-.26,41.51-28.18,71.37-69.22,72.06-74.74,1.25-149.51.48-224.27.45C1331.92,685.64,1328.75,684.53,1327,684.21Z" transform="translate(-274.84 210.91)"/><path class="cls-1" d="M965.24,310.06A171.59,171.59,0,0,1,1133.41,486c-2.2,91.94-81.36,168-173.12,166.29-94.42-1.73-170.52-80-168.9-173.75C793,384,871.28,308.12,965.24,310.06ZM852.88,479.68c-.85,60.81,47,110.05,108.12,111.19,60.22,1.13,109.77-47.35,111-108.56,1.19-60.31-47.52-110.23-108.32-111S853.73,418.46,852.88,479.68Z" transform="translate(-274.84 210.91)"/><path d="M852.88,479.68c.85-61.22,49.86-109.18,110.77-108.39S1073.16,422,1072,482.31c-1.2,61.21-50.75,109.69-111,108.56C899.92,589.73,852,540.49,852.88,479.68Z" transform="translate(-274.84 210.91)"/></svg>