<svg id="Capa_1" data-name="Capa 1" xmlns="http://www.w3.org/2000/svg" viewBox="0 0 1377.14 1376.93"><defs><style>.cls-1{fill:#fff;}</style></defs><title>cruz</title><path class="cls-1" d="M1410.26,768.77q-71.58,0-143.16,0c-49.55.08-78.71,29.51-78.74,79.51q-.09,141.57,0,283.14c0,59.35-38.11,97.64-97.15,97.7q-130.43.15-260.87,0c-59.46-.05-97.68-38.05-97.72-97.19q-.11-141.57,0-283.14c0-51-28.93-80-79.75-80q-141.57-.09-283.14,0c-59.07,0-97.65-38.45-97.71-97.45q-.15-130.42,0-260.87c.08-59.53,37.94-97.52,97.27-97.59q140.78-.17,281.55-.05c52.69,0,81.79-29,81.79-81.44q0-140.78,0-281.55c0-59.5,37.83-97.42,97.25-97.47q130.42-.14,260.87,0c59.76,0,97.59,37.63,97.63,97q.12,140.77,0,281.55c0,52.86,28.84,81.89,81.37,81.92q140,.07,280,0c61.67,0,99.29,37.46,99.3,98.7q0,128.84,0,257.68c0,62-37.87,99.54-100.33,99.56ZM512.58,749.7q70,0,140,0c61.65.06,99,37.42,99,99.13q.06,140.77,0,281.55c0,50.93,28.85,79.72,80,79.79q128.83.16,257.68,0c51.16-.07,80-28.86,80-79.77q.07-140.78,0-281.55c0-61.63,37.49-99.12,99.06-99.15q140.78-.06,281.55,0c50.8,0,80-29.15,80-79.8q.06-128.83,0-257.68c0-51.92-28.58-80.39-80.84-80.42-93.85,0-187.7.1-281.55-.05-60.27-.1-98.21-38.28-98.24-98.51q0-141.57,0-283.14c-.06-50-29-78.67-79.16-78.7q-129.64-.07-259.28,0c-50.21,0-79.18,28.78-79.21,78.67q-.11,140,0,280c0,64.69-36.85,101.73-101.35,101.76q-140.76.06-281.54.05c-47.93.08-77.6,29.51-77.7,77.22q-.28,132,0,264.05c.08,46.3,30.41,76.44,76.84,76.58C416.08,749.81,464.33,749.7,512.58,749.7Z" transform="translate(-271.86 147.73)"/></svg>